<svg width="1200" height="630" viewBox="0 0 1200 630" fill="none" xmlns="http://www.w3.org/2000/svg">
  <rect width="1200" height="630" fill="#050A14"/>
  <circle cx="180" cy="120" r="220" fill="#00F5FF" fill-opacity="0.08"/>
  <circle cx="1020" cy="120" r="260" fill="#8B5CF6" fill-opacity="0.12"/>
  <circle cx="980" cy="540" r="220" fill="#00F5FF" fill-opacity="0.08"/>
  <g opacity="0.18" stroke="#F0F6FF" stroke-width="1">
    <path d="M0 80H1200"/>
    <path d="M0 160H1200"/>
    <path d="M0 240H1200"/>
    <path d="M0 320H1200"/>
    <path d="M0 400H1200"/>
    <path d="M0 480H1200"/>
    <path d="M0 560H1200"/>
    <path d="M120 0V630"/>
    <path d="M240 0V630"/>
    <path d="M360 0V630"/>
    <path d="M480 0V630"/>
    <path d="M600 0V630"/>
    <path d="M720 0V630"/>
    <path d="M840 0V630"/>
    <path d="M960 0V630"/>
    <path d="M1080 0V630"/>
  </g>
  <rect x="76" y="72" width="1048" height="486" rx="36" fill="#0D1526" fill-opacity="0.82" stroke="url(#paint0_linear)" stroke-width="2"/>
  <rect x="116" y="112" width="158" height="48" rx="24" fill="#00F5FF" fill-opacity="0.12" stroke="#00F5FF" stroke-opacity="0.28"/>
  <text x="145" y="144" fill="#00F5FF" font-family="JetBrains Mono, monospace" font-size="24">&gt; Full Stack Developer &amp; AI Builder</text>
  <text x="114" y="270" fill="#F0F6FF" font-family="Syne, sans-serif" font-size="98" font-weight="800">Dhruvin Malot</text>
  <text x="116" y="348" fill="#9DB0CF" font-family="DM Sans, sans-serif" font-size="34">Building Intelligent Web Experiences with MERN Stack + AI</text>
  <rect x="116" y="398" width="244" height="62" rx="31" fill="url(#paint1_linear)"/>
  <text x="164" y="437" fill="#04111F" font-family="DM Sans, sans-serif" font-size="26" font-weight="700">Portfolio 2026</text>
  <rect x="736" y="164" width="288" height="214" rx="28" fill="#091120" stroke="#00F5FF" stroke-opacity="0.24"/>
  <rect x="764" y="196" width="232" height="20" rx="10" fill="#00F5FF" fill-opacity="0.18"/>
  <rect x="764" y="236" width="176" height="20" rx="10" fill="#8B5CF6" fill-opacity="0.22"/>
  <rect x="764" y="276" width="210" height="20" rx="10" fill="#F59E0B" fill-opacity="0.22"/>
  <rect x="764" y="326" width="112" height="18" rx="9" fill="#F0F6FF" fill-opacity="0.18"/>
  <rect x="894" y="326" width="96" height="18" rx="9" fill="#F0F6FF" fill-opacity="0.12"/>
  <rect x="706" y="412" width="144" height="88" rx="24" fill="#091120" stroke="#8B5CF6" stroke-opacity="0.24"/>
  <rect x="870" y="412" width="154" height="88" rx="24" fill="#091120" stroke="#00F5FF" stroke-opacity="0.24"/>
  <text x="742" y="462" fill="#F0F6FF" font-family="JetBrains Mono, monospace" font-size="22">MERN</text>
  <text x="907" y="462" fill="#F0F6FF" font-family="JetBrains Mono, monospace" font-size="22">AI / CV</text>
  <defs>
    <linearGradient id="paint0_linear" x1="110" y1="92" x2="1080" y2="550" gradientUnits="userSpaceOnUse">
      <stop stop-color="#00F5FF"/>
      <stop offset="1" stop-color="#8B5CF6"/>
    </linearGradient>
    <linearGradient id="paint1_linear" x1="116" y1="398" x2="360" y2="460" gradientUnits="userSpaceOnUse">
      <stop stop-color="#00F5FF"/>
      <stop offset="1" stop-color="#8B5CF6"/>
    </linearGradient>
  </defs>
</svg>
